# xmcd
#
# Track frame offsets:
#	150
#	16259
#	27157
#	40674
#	49547
#	57016
#	71127
#	84455
#	95569
#	106251
#	117905
#	132907
#	141375
#	152894
#
# Disc length: 2155 seconds
#
# Revision: 0
# Processed by: cddbd v1.5.2PL0 Copyright (c) Steve Scherf et al.
# Submitted via: EasyCDDAExtractor 16.0.6.1
#
DISCID=b608690e
DTITLE=Συλλογικός δίσκος - Μεγάλες επιτυχίες του Μίμη Πλέσσα
DYEAR=1997
DGENRE=Ελαφρολαϊκή
TTITLE0=Πουλόπουλος Γιάννης - Θα πιω απόψε το φεγγάρι [Μ. Πλέσσα-Λ. Παπαδόπουλ
TTITLE0=ου]
TTITLE1=Χρονοπούλου Μαίρη - Του αγοριού απέναντι [Μ. Πλέσσα-Λ. Παπαδόπουλου]
TTITLE2=Βιολάρης Μιχάλης - Αν βουληθώ να σ' αρνηθώ [Μ. Πλέσσα]
TTITLE3=Κουμιώτη Ρένα - Το γλυκό τ' αϊδόνι [Μ. Πλέσσα-Λ. Παπαδόπουλου]
TTITLE4=Χατζής Κώστας - Αν σ' αρνηθώ αγάπη μου [Μ. Πλέσσα-Δανάης]
TTITLE5=Πουλόπουλος Γιάννης - Γλυκιά μου αγάπη [Μ. Πλέσσα-Δ. Χριστοδούλου]
TTITLE6=Κουμιώτη Ρένα - Το καινούριο μου φεγγάρι [Μ. Πλέσσα-Ά. Δασκαλόπουλου]
TTITLE7=Χορν Δημήτρης - Οι χάντρες [Μ. Πλέσσα-Κ. Πρετεντέρη]
TTITLE8=Χρονοπούλου Μαίρη - Είμαι γυναίκα του κεφιού [Μ. Πλέσσα-Γ. Δαλιανίδη]
TTITLE9=Βογιατζής Γιάννης - Νύχτα καλοκαιριού [Μ. Πλέσσα]
TTITLE10=Αστεριάδη Πόπη - Μην αργήσεις [Μ. Πλέσσα-Ν. Φώσκολου]
TTITLE11=Βλαχοπούλου Ρένα - Η Αθήνα τη νύχτα [Μ. Πλέσσα-Γ. Σαντοριναίου]
TTITLE12=Χρονοπούλου Μαίρη - Καμαρούλα μιά σταλιά [Μ. Πλέσσα-Λ. Παπαδόπουλου]
TTITLE13=Πουλόπουλος Γιάννης - Στη φτωχειά μας την αυλή [Μ. Πλέσσα-Α. Σακελλάρ
TTITLE13=ιου]
EXTD=
EXTT0=
EXTT1=
EXTT2=
EXTT3=
EXTT4=
EXTT5=
EXTT6=
EXTT7=
EXTT8=
EXTT9=
EXTT10=
EXTT11=
EXTT12=
EXTT13=
PLAYORDER=
